<svg width="24" height="24" viewBox="0 0 24 24" fill="none" xmlns="http://www.w3.org/2000/svg">
<path d="M13.518 3.54429C13.0703 3.2399 12.5414 3.07715 12 3.07715C11.4586 3.07715 10.9297 3.2399 10.482 3.54429L5.56918 6.88509C4.96258 7.29767 4.46605 7.85229 4.12284 8.50066C3.77962 9.14903 3.60012 9.87148 3.59998 10.6051V19.5007C3.59998 19.7394 3.6948 19.9683 3.86358 20.1371C4.03236 20.3059 4.26128 20.4007 4.49998 20.4007C4.73867 20.4007 4.96759 20.3059 5.13637 20.1371C5.30515 19.9683 5.39998 19.7394 5.39998 19.5007V10.6063C5.39998 9.71229 5.84278 8.87589 6.58198 8.37429L11.4936 5.03349C11.6429 4.93185 11.8193 4.8775 12 4.8775C12.1806 4.8775 12.3571 4.93185 12.5064 5.03349L17.418 8.37309C17.782 8.62058 18.08 8.95333 18.286 9.34236C18.4921 9.73138 18.5998 10.1649 18.6 10.6051V19.5007C18.6 19.7394 18.6948 19.9683 18.8636 20.1371C19.0324 20.3059 19.2613 20.4007 19.5 20.4007C19.7387 20.4007 19.9676 20.3059 20.1364 20.1371C20.3052 19.9683 20.4 19.7394 20.4 19.5007V10.6063C20.4 9.87248 20.2206 9.14979 19.8774 8.50119C19.5342 7.8526 19.0375 7.29778 18.4308 6.88509L13.518 3.54429Z" fill="#565656"/>
<path fill-rule="evenodd" clip-rule="evenodd" d="M12 20.3616C11.902 20.387 11.8012 20.3999 11.7 20.4H8.10002C7.78176 20.4 7.47654 20.2736 7.2515 20.0485C7.02645 19.8235 6.90002 19.5183 6.90002 19.2V15C6.90002 14.6817 7.02645 14.3765 7.2515 14.1515C7.47654 13.9264 7.78176 13.8 8.10002 13.8H9.00002V10.2C9.00002 9.88174 9.12645 9.57652 9.3515 9.35147C9.57654 9.12643 9.88176 9 10.2 9H13.8C14.1183 9 14.4235 9.12643 14.6486 9.35147C14.8736 9.57652 15 9.88174 15 10.2V13.8H15.9C16.2183 13.8 16.5235 13.9264 16.7486 14.1515C16.9736 14.3765 17.1 14.6817 17.1 15V19.2C17.1 19.5183 16.9736 19.8235 16.7486 20.0485C16.5235 20.2736 16.2183 20.4 15.9 20.4H12.3C12.1988 20.3999 12.098 20.387 12 20.3616ZM12.9 15.6V18.6H15.3V15.6H12.9ZM11.1 18.6V15.6H8.70002V18.6H11.1ZM13.2 13.8V10.8H10.8V13.8H13.2Z" fill="#565656"/>
</svg>
