<svg width="16" height="16" viewBox="0 0 16 16" fill="none" xmlns="http://www.w3.org/2000/svg">
<path d="M1.55078 7.69163L1.55078 7.69154C1.55074 7.31714 1.62446 6.9464 1.76774 6.60051C1.91102 6.25461 2.12105 5.94034 2.38583 5.67564L2.38591 5.67556L6.83423 1.22724C6.83426 1.22721 6.83428 1.22718 6.83431 1.22716C7.14372 0.917881 7.5633 0.744141 8.00078 0.744141C8.43826 0.744141 8.85784 0.917881 9.16725 1.22716C9.16728 1.22719 9.1673 1.22721 9.16733 1.22724L13.6157 5.67556L13.6157 5.67564C13.8805 5.94034 14.0905 6.25461 14.2338 6.60051C14.3771 6.9464 14.4508 7.31714 14.4508 7.69154V7.69163V12.8C14.4508 13.2376 14.2769 13.6573 13.9675 13.9668C13.6581 14.2762 13.2384 14.45 12.8008 14.45H10.4008C10.2814 14.45 10.167 14.4026 10.0826 14.3182C9.99819 14.2338 9.95078 14.1194 9.95078 14V11C9.95078 10.642 9.80855 10.2986 9.55538 10.0454C9.3022 9.79226 8.95882 9.65003 8.60078 9.65003H7.40078C7.04274 9.65003 6.69936 9.79226 6.44619 10.0454C6.19301 10.2986 6.05078 10.642 6.05078 11V14C6.05078 14.1194 6.00337 14.2338 5.91898 14.3182C5.83459 14.4026 5.72013 14.45 5.60078 14.45H3.20078C2.76317 14.45 2.34349 14.2762 2.03405 13.9668C1.72462 13.6573 1.55078 13.2376 1.55078 12.8L1.55078 7.69163Z" stroke="#565656" stroke-width="1.5"/>
</svg>
