<svg width="16" height="16" viewBox="0 0 16 16" fill="none" xmlns="http://www.w3.org/2000/svg">
<path fill-rule="evenodd" clip-rule="evenodd" d="M4.37115 0.200195C3.5798 0.200285 2.81482 0.484748 2.21568 1.00173C1.61654 1.51871 1.22312 2.23378 1.10715 3.0166L0.312752 8.3686C0.237485 8.87794 0.199783 9.39212 0.199952 9.907V11.9002C0.199952 12.9345 0.610843 13.9265 1.34224 14.6579C2.07363 15.3893 3.06561 15.8002 4.09995 15.8002H11.9C12.9343 15.8002 13.9263 15.3893 14.6577 14.6579C15.3891 13.9265 15.8 12.9345 15.8 11.9002V9.9082C15.8 9.3922 15.7616 8.8786 15.686 8.3686L14.894 3.0166C14.778 2.23378 14.3846 1.51871 13.7854 1.00173C13.1863 0.484748 12.4213 0.200285 11.63 0.200195H4.37115ZM2.88675 3.2806C2.93944 2.9246 3.11835 2.59941 3.39085 2.36436C3.66336 2.12931 4.01128 2.00006 4.37115 2.0002H11.6288C12.3728 2.0002 13.004 2.545 13.1132 3.2806L13.8128 8.0002H10.832C10.5173 8.00043 10.2106 8.09964 9.95542 8.28377C9.70022 8.4679 9.50939 8.72763 9.40995 9.0262L9.21915 9.595C9.19926 9.65471 9.1611 9.70665 9.11006 9.74348C9.05902 9.78031 8.99769 9.80015 8.93475 9.8002H7.06515C7.00236 9.80023 6.94114 9.78057 6.89012 9.74397C6.8391 9.70737 6.80085 9.65568 6.78075 9.5962L6.58995 9.0262C6.49051 8.72763 6.29968 8.4679 6.04449 8.28377C5.78929 8.09964 5.48264 8.00043 5.16795 8.0002H2.18715L2.88675 3.2806ZM2.00115 9.8002L1.99995 9.9082V11.9002C1.99995 13.0594 2.94075 14.0002 4.09995 14.0002H11.9C12.4569 14.0002 12.991 13.7789 13.3849 13.3851C13.7787 12.9913 14 12.4572 14 11.9002V9.8002H11.048L10.928 10.1638C10.7887 10.582 10.5213 10.9457 10.1638 11.2035C9.8063 11.4613 9.37672 11.6001 8.93595 11.6002H7.06395C6.62318 11.6001 6.19361 11.4613 5.83609 11.2035C5.47857 10.9457 5.21124 10.582 5.07195 10.1638L4.95195 9.8002H2.00115Z" fill="#565656"/>
</svg>
