<svg width="24" height="24" viewBox="0 0 24 24" fill="none" xmlns="http://www.w3.org/2000/svg">
<path fill-rule="evenodd" clip-rule="evenodd" d="M8.40002 9.8998C8.40002 8.94503 8.77931 8.02935 9.45444 7.35422C10.1296 6.67909 11.0452 6.2998 12 6.2998C12.9548 6.2998 13.8705 6.67909 14.5456 7.35422C15.2207 8.02935 15.6 8.94503 15.6 9.8998C15.6 10.8546 15.2207 11.7703 14.5456 12.4454C13.8705 13.1205 12.9548 13.4998 12 13.4998C11.0452 13.4998 10.1296 13.1205 9.45444 12.4454C8.77931 11.7703 8.40002 10.8546 8.40002 9.8998ZM12 8.0998C11.5226 8.0998 11.0648 8.28945 10.7272 8.62701C10.3897 8.96458 10.2 9.42241 10.2 9.8998C10.2 10.3772 10.3897 10.835 10.7272 11.1726C11.0648 11.5102 11.5226 11.6998 12 11.6998C12.4774 11.6998 12.9353 11.5102 13.2728 11.1726C13.6104 10.835 13.8 10.3772 13.8 9.8998C13.8 9.42241 13.6104 8.96458 13.2728 8.62701C12.9353 8.28945 12.4774 8.0998 12 8.0998Z" fill="#0054A5"/>
<path fill-rule="evenodd" clip-rule="evenodd" d="M18.2033 18.5222C17.3486 19.3459 16.3394 19.9925 15.2339 20.4245C14.1283 20.8566 12.9482 21.0657 11.7615 21.0399C10.5748 21.014 9.40491 20.7536 8.31924 20.2737C7.23357 19.7938 6.25355 19.1039 5.43562 18.2437C4.61768 17.3835 3.97798 16.37 3.55335 15.2616C3.12872 14.1531 2.92755 12.9717 2.96143 11.7851C2.99531 10.5986 3.26356 9.43053 3.75074 8.34812C4.23792 7.26571 4.9344 6.29036 5.80009 5.47823C7.53325 3.8523 9.83914 2.97784 12.2146 3.04566C14.5901 3.11349 16.8423 4.11808 18.4799 5.84026C20.1175 7.56243 21.0074 9.86238 20.9556 12.2383C20.9038 14.6141 19.9144 16.8731 18.2033 18.5222ZM6.40729 16.5314C5.55154 15.4746 5.01257 14.197 4.85277 12.8466C4.69297 11.4962 4.91887 10.1281 5.50432 8.90072C6.08977 7.67335 7.01084 6.63686 8.16091 5.91124C9.31098 5.18561 10.643 4.80051 12.0029 4.80051C13.3627 4.80051 14.6948 5.18561 15.8449 5.91124C16.9949 6.63686 17.916 7.67335 18.5015 8.90072C19.0869 10.1281 19.3128 11.4962 19.153 12.8466C18.9932 14.197 18.4542 15.4746 17.5985 16.5314C16.0563 15.1604 14.0651 14.4022 12.0017 14.4002C9.93864 14.4025 7.94914 15.1607 6.40729 16.5314ZM7.71049 17.783C8.95064 18.7058 10.4559 19.2029 12.0017 19.2002C13.6097 19.2002 15.0941 18.6722 16.2929 17.783C15.0952 16.7636 13.5745 16.2026 12.0017 16.2002C10.4289 16.2026 8.90812 16.7636 7.71049 17.783Z" fill="#0054A5"/>
</svg>
